<?xml version="1.0" standalone="no"?>
<!DOCTYPE svg PUBLIC "-//W3C//DTD SVG 20010904//EN"
 "http://www.w3.org/TR/2001/REC-SVG-20010904/DTD/svg10.dtd">
<svg version="1.0" xmlns="http://www.w3.org/2000/svg"
 width="999.000000pt" height="1030.000000pt" viewBox="0 0 999.000000 1030.000000"
 preserveAspectRatio="xMidYMid meet">

<g transform="translate(0.000000,1030.000000) scale(0.100000,-0.100000)"
fill="#000000" stroke="none">
<path d="M5215 9474 l-25 -27 0 -2566 0 -2566 -59 108 c-108 197 -221 348
-376 502 -318 317 -740 522 -1195 580 -161 21 -452 16 -595 -10 -442 -79 -814
-271 -1121 -579 -248 -249 -409 -511 -513 -838 -200 -630 -85 -1322 309 -1853
553 -745 1521 -1033 2387 -709 476 178 866 521 1108 976 l55 103 0 -493 0
-494 29 -29 c52 -52 131 -31 151 40 6 22 10 226 10 525 l0 489 51 -99 c247
-482 672 -845 1189 -1018 518 -172 1066 -134 1565 109 220 107 393 233 570
416 297 307 480 666 558 1094 21 118 21 140 25 1263 l3 1142 -25 25 c-41 41
-120 32 -148 -18 -10 -17 -14 -282 -19 -1167 l-6 -1145 -27 -125 c-37 -167
-85 -310 -152 -450 -272 -567 -821 -963 -1448 -1046 -144 -19 -435 -14 -561 9
-487 91 -895 340 -1180 718 -146 194 -238 377 -305 604 -47 163 -67 278 -80
470 -6 94 -10 1229 -10 3065 0 1975 -3 2927 -10 2952 -13 46 -43 68 -93 68
-28 0 -44 -7 -62 -26z m-1641 -4159 c807 -122 1437 -735 1582 -1540 8 -44 14
-92 14 -107 l0 -28 -1871 0 -1870 0 6 48 c100 724 578 1310 1264 1547 95 32
291 78 381 88 96 11 402 6 494 -8z m1606 -1942 c-1 -162 -47 -397 -116 -581
-198 -530 -637 -950 -1176 -1126 -982 -321 -2042 212 -2367 1189 -57 171 -101
413 -101 555 l0 40 1880 0 1880 0 0 -77z"/>
</g>
</svg>
